<?xml version="1.0" encoding="UTF-8" standalone="no"?>
<!-- Created with Inkscape (http://www.inkscape.org/) -->

<svg
   width="153.78648mm"
   height="120.23213mm"
   viewBox="0 0 153.78648 120.23213"
   version="1.1"
   id="svg1"
   xml:space="preserve"
   inkscape:export-filename="Gladius.png"
   inkscape:export-xdpi="96"
   inkscape:export-ydpi="96"
   sodipodi:docname="Gladius.svg"
   xmlns:inkscape="http://www.inkscape.org/namespaces/inkscape"
   xmlns:sodipodi="http://sodipodi.sourceforge.net/DTD/sodipodi-0.dtd"
   xmlns="http://www.w3.org/2000/svg"
   xmlns:svg="http://www.w3.org/2000/svg"><sodipodi:namedview
     id="namedview1"
     pagecolor="#505050"
     bordercolor="#eeeeee"
     borderopacity="1"
     inkscape:showpageshadow="0"
     inkscape:pageopacity="0"
     inkscape:pagecheckerboard="0"
     inkscape:deskcolor="#505050"
     inkscape:document-units="mm"
     inkscape:zoom="1"
     inkscape:cx="-353"
     inkscape:cy="209.5"
     inkscape:window-width="3440"
     inkscape:window-height="1377"
     inkscape:window-x="-8"
     inkscape:window-y="-8"
     inkscape:window-maximized="1"
     inkscape:current-layer="layer1" /><defs
     id="defs1" /><g
     inkscape:groupmode="layer"
     id="layer5"
     inkscape:label="Swing"
     transform="translate(-41.533898,-102.59044)"><path
       id="path12"
       style="fill:#ffffff;fill-opacity:1;stroke:#000000;stroke-width:0;stroke-linecap:square;stroke-linejoin:miter;stroke-miterlimit:4.1;stroke-dasharray:none;paint-order:markers stroke fill"
       d="m 47.453434,102.5958 c -3.749073,-0.0353 -5.919535,0.11576 -5.919535,0.11576 0,0 25.069491,25.07034 27.875818,69.0361 2.806323,43.96573 -6.360852,42.65579 -6.360852,42.65579 l 132.271515,8.41912 c 0,0 -24.69575,-39.10166 -58.37163,-81.7578 C 109.58708,106.40668 63.699421,102.749 47.453434,102.5958 Z M 87.3125,122.50208 c 0,0 22.48964,9.26047 45.50833,28.04584 23.01871,18.78538 30.1625,52.3875 30.1625,52.3875 0,0 -23.01877,-17.9917 -34.925,-34.925 C 116.15212,151.07711 87.3125,122.50208 87.3125,122.50208 Z M 73.554167,130.175 c 0,0 52.387513,50.53542 58.208333,59.00208 5.82082,8.46666 -24.34168,5.55624 -35.189583,-2.64583 C 85.725012,178.32917 73.554167,130.175 73.554167,130.175 Z" /></g></svg>
